<svg width="16" height="16" viewBox="0 0 16 16" fill="none" xmlns="http://www.w3.org/2000/svg">
<path fill-rule="evenodd" clip-rule="evenodd" d="M11.0481 3.59431C11.4253 3.21737 12.035 3.21744 12.4121 3.59453C12.7826 3.96502 12.7826 4.58163 12.4121 4.95213L9.36426 7.99999L12.4121 11.0479C12.7893 11.425 12.7893 12.035 12.4121 12.4121C12.035 12.7893 11.425 12.7893 11.0479 12.4121L7.99999 9.36426L4.95213 12.4121C4.57497 12.7893 3.96502 12.7893 3.58786 12.4121C3.2107 12.035 3.2107 11.425 3.58786 11.0479L6.63573 7.99999L3.58786 4.95213C3.2107 4.57497 3.2107 3.96502 3.58786 3.58786C3.96502 3.2107 4.57497 3.2107 4.95213 3.58786L8.00021 6.63595L11.0481 3.59431Z" fill="black"/>
</svg>
