<svg xmlns="http://www.w3.org/2000/svg" viewBox="0 0 128 128">
    <path d="M 14 1 C 6.8 1 1 6.8 1 14 L 1 114 C 1 121.2 6.8 127 14 127 L 78 127 C 81.5 127 84.699219 125.59922 87.199219 123.19922 C 89.699219 120.79922 91 117.5 91 114 L 91 94 C 90.9 92.3 89.600391 91 87.900391 91 C 86.200391 91 84.900391 92.3 84.900391 94 L 84.900391 114 C 84.900391 115.9 84.200391 117.6 82.900391 119 C 81.600391 120.3 79.800391 121.09961 77.900391 121.09961 L 14 121.09961 C 10.1 121.09961 7 117.99961 7 114.09961 L 7 14 C 7 10.1 10.1 7 14 7 L 65 7 L 65 14 C 65 21.2 70.8 27 78 27 L 88 27 C 89.7 27 91 25.7 91 24 C 91 17.8 88.600781 12.099219 84.300781 7.6992188 C 79.900781 3.3992188 74.1 1 68 1 L 14 1 z M 71 7.3007812 C 74.4 7.9007813 77.5 9.5 80 12 C 82.5 14.5 84.099219 17.6 84.699219 21 L 78 21 C 74.1 21 71 17.9 71 14 L 71 7.3007812 z M 115 15 C 108.9 15 104 19.9 104 26 C 104 28.7 104.99961 31.199609 106.59961 33.099609 L 90.400391 57.5 C 89.300391 57.2 88.2 57 87 57 C 84.1 57 81.499609 58.100391 79.599609 59.900391 L 66.599609 51.900391 C 66.799609 51.000391 67 50 67 49 C 67 42.9 62.1 38 56 38 C 49.9 38 45 42.9 45 49 C 45 51.7 46 54.1 47.5 56 L 28.5 83.599609 C 27.4 83.199609 26.2 83 25 83 C 18.9 83 14 87.9 14 94 C 14 100.1 18.9 105 25 105 C 31.1 105 36 100.1 36 94 C 36 91.3 35 88.9 33.5 87 L 52.5 59.400391 C 53.6 59.800391 54.8 60 56 60 C 58.9 60 61.500391 58.899609 63.400391 57.099609 L 76.400391 65.099609 C 76.200391 65.999609 76 67 76 68 C 76 74.1 80.9 79 87 79 C 93.1 79 98 74.1 98 68 C 98 65.3 97.000391 62.800391 95.400391 60.900391 L 111.69922 36.5 C 112.79922 36.8 113.89961 37 115.09961 37 C 121.19961 37 126.09961 32.1 126.09961 26 C 126.09961 19.9 121.1 15 115 15 z M 115 21 C 117.8 21 120 23.2 120 26 C 120 28.8 117.8 31 115 31 C 112.2 31 110 28.8 110 26 C 110 23.2 112.2 21 115 21 z M 56 44 C 58.8 44 61 46.2 61 49 C 61 51.8 58.8 54 56 54 C 53.2 54 51 51.8 51 49 C 51 46.2 53.2 44 56 44 z M 87 63 C 89.8 63 92 65.2 92 68 C 92 70.8 89.8 73 87 73 C 84.2 73 82 70.8 82 68 C 82 65.2 84.2 63 87 63 z M 25 89 C 27.8 89 30 91.2 30 94 C 30 96.8 27.8 99 25 99 C 22.2 99 20 96.8 20 94 C 20 91.2 22.2 89 25 89 z" fill="#fafafa"></path>
</svg>
