<svg width="24" height="24" viewBox="0 0 24 24" fill="none" xmlns="http://www.w3.org/2000/svg">
<path fill-rule="evenodd" clip-rule="evenodd" d="M21.6782 20.1196C21.1627 19.6019 19.6837 18.1245 18.3335 16.7765L15.763 14.2109L15.6706 14.1187L15.7462 14.0138C16.8813 12.4404 17.4319 10.4223 17.0746 8.28967C16.526 5.04691 13.8163 2.45567 10.5485 2.0591C5.60858 1.45218 1.45189 5.6064 2.05912 10.5431C2.45591 13.8088 5.04855 16.5172 8.29327 17.0655C10.4298 17.4231 12.4513 16.8712 14.0265 15.734L14.1316 15.6582L20.1184 21.6785C20.5474 22.1071 21.2493 22.1072 21.6783 21.6785C22.1073 21.2497 22.1072 20.5483 21.6782 20.1196ZM9.59018 15.0936C6.54096 15.0936 4.07909 12.6333 4.07909 9.58562C4.07909 6.53797 6.54096 4.07767 9.59018 4.07767C12.6394 4.07767 15.1013 6.53797 15.1013 9.58562C15.1013 12.6333 12.6394 15.0936 9.59018 15.0936Z" fill="#fafafa"/>
</svg>
